<mxfile host="65bd71144e">
    <diagram id="Muk35M1s3Lf1WXlXDoJJ" name="Page-1">
        <mxGraphModel dx="1058" dy="587" grid="1" gridSize="10" guides="1" tooltips="1" connect="1" arrows="1" fold="1" page="1" pageScale="1" pageWidth="1654" pageHeight="2336" math="0" shadow="0">
            <root>
                <mxCell id="0"/>
                <mxCell id="1" parent="0"/>
                <mxCell id="2" value="" style="rounded=0;whiteSpace=wrap;html=1;" parent="1" vertex="1">
                    <mxGeometry x="230" y="100" width="210" height="470" as="geometry"/>
                </mxCell>
                <mxCell id="3" value="ECStack调用栈" style="text;html=1;align=center;verticalAlign=middle;resizable=0;points=[];autosize=1;strokeColor=none;" parent="1" vertex="1">
                    <mxGeometry x="230" y="70" width="100" height="20" as="geometry"/>
                </mxCell>
                <mxCell id="4" value="" style="rounded=0;whiteSpace=wrap;html=1;" parent="1" vertex="1">
                    <mxGeometry x="520" y="100" width="510" height="470" as="geometry"/>
                </mxCell>
                <mxCell id="5" value="堆内存" style="text;html=1;align=center;verticalAlign=middle;resizable=0;points=[];autosize=1;strokeColor=none;" parent="1" vertex="1">
                    <mxGeometry x="670" y="70" width="50" height="20" as="geometry"/>
                </mxCell>
                <mxCell id="6" value="String&lt;br&gt;setTimeout&lt;br&gt;window&lt;br&gt;foo: 0xa00&lt;br&gt;fn: 0xb00" style="rounded=0;whiteSpace=wrap;html=1;align=left;" parent="1" vertex="1">
                    <mxGeometry x="550" y="130" width="120" height="110" as="geometry"/>
                </mxCell>
                <mxCell id="7" value="GO对象" style="text;html=1;align=center;verticalAlign=middle;resizable=0;points=[];autosize=1;strokeColor=none;" parent="1" vertex="1">
                    <mxGeometry x="550" y="110" width="60" height="20" as="geometry"/>
                </mxCell>
                <mxCell id="8" value="" style="rounded=0;whiteSpace=wrap;html=1;align=left;" parent="1" vertex="1">
                    <mxGeometry x="250" y="440" width="160" height="120" as="geometry"/>
                </mxCell>
                <mxCell id="9" value="GEC(全局执行上下文)" style="text;html=1;align=center;verticalAlign=middle;resizable=0;points=[];autosize=1;strokeColor=none;" parent="1" vertex="1">
                    <mxGeometry x="250" y="410" width="130" height="20" as="geometry"/>
                </mxCell>
                <mxCell id="12" value="VO: GO" style="rounded=0;whiteSpace=wrap;html=1;align=left;" parent="1" vertex="1">
                    <mxGeometry x="260" y="450" width="120" height="40" as="geometry"/>
                </mxCell>
                <mxCell id="13" value="开始执行代码&lt;br&gt;var fn = 0xb00" style="rounded=0;whiteSpace=wrap;html=1;align=left;" parent="1" vertex="1">
                    <mxGeometry x="260" y="500" width="120" height="50" as="geometry"/>
                </mxCell>
                <mxCell id="19" value="" style="rounded=0;whiteSpace=wrap;html=1;align=left;" parent="1" vertex="1">
                    <mxGeometry x="550" y="280" width="120" height="60" as="geometry"/>
                </mxCell>
                <mxCell id="20" value="foo函数对象0xa00" style="text;html=1;align=center;verticalAlign=middle;resizable=0;points=[];autosize=1;strokeColor=none;" parent="1" vertex="1">
                    <mxGeometry x="545" y="250" width="110" height="20" as="geometry"/>
                </mxCell>
                <mxCell id="31" value="name: &quot;foo&quot;&lt;br&gt;bar: 0xb00" style="rounded=0;whiteSpace=wrap;html=1;align=left;" vertex="1" parent="1">
                    <mxGeometry x="700" y="130" width="120" height="110" as="geometry"/>
                </mxCell>
                <mxCell id="32" value="AO对象(foo)" style="text;html=1;align=center;verticalAlign=middle;resizable=0;points=[];autosize=1;strokeColor=none;" vertex="1" parent="1">
                    <mxGeometry x="700" y="110" width="80" height="20" as="geometry"/>
                </mxCell>
                <mxCell id="33" value="" style="rounded=0;whiteSpace=wrap;html=1;align=left;" vertex="1" parent="1">
                    <mxGeometry x="700" y="280" width="120" height="60" as="geometry"/>
                </mxCell>
                <mxCell id="34" value="bar函数对象0xb00" style="text;html=1;align=center;verticalAlign=middle;resizable=0;points=[];autosize=1;strokeColor=none;" vertex="1" parent="1">
                    <mxGeometry x="695" y="250" width="110" height="20" as="geometry"/>
                </mxCell>
                <mxCell id="37" value="" style="rounded=0;whiteSpace=wrap;html=1;align=left;" vertex="1" parent="1">
                    <mxGeometry x="250" y="270" width="160" height="120" as="geometry"/>
                </mxCell>
                <mxCell id="38" value="FEC(函数执行上下文bar)" style="text;html=1;align=center;verticalAlign=middle;resizable=0;points=[];autosize=1;strokeColor=none;" vertex="1" parent="1">
                    <mxGeometry x="245" y="240" width="150" height="20" as="geometry"/>
                </mxCell>
                <mxCell id="40" value="堆内存" style="text;html=1;align=center;verticalAlign=middle;resizable=0;points=[];autosize=1;strokeColor=none;" vertex="1" parent="1">
                    <mxGeometry x="820" y="70" width="50" height="20" as="geometry"/>
                </mxCell>
                <mxCell id="41" value="" style="rounded=0;whiteSpace=wrap;html=1;align=left;" vertex="1" parent="1">
                    <mxGeometry x="850" y="130" width="120" height="110" as="geometry"/>
                </mxCell>
                <mxCell id="42" value="AO对象(bar)" style="text;html=1;align=center;verticalAlign=middle;resizable=0;points=[];autosize=1;strokeColor=none;" vertex="1" parent="1">
                    <mxGeometry x="850" y="110" width="80" height="20" as="geometry"/>
                </mxCell>
                <mxCell id="43" value="VO: AO&lt;br&gt;scope chain: VO+parentScope" style="rounded=0;whiteSpace=wrap;html=1;align=left;" vertex="1" parent="1">
                    <mxGeometry x="260" y="280" width="180" height="40" as="geometry"/>
                </mxCell>
                <mxCell id="44" value="console.log(&quot;bar&quot;,&quot;foo&quot;)" style="rounded=0;whiteSpace=wrap;html=1;align=left;" vertex="1" parent="1">
                    <mxGeometry x="260" y="340" width="140" height="40" as="geometry"/>
                </mxCell>
                <mxCell id="45" value="parentScope: foo ao" style="rounded=0;whiteSpace=wrap;html=1;align=left;" vertex="1" parent="1">
                    <mxGeometry x="705" y="290" width="115" height="20" as="geometry"/>
                </mxCell>
                <mxCell id="46" value="代码的执行体" style="rounded=0;whiteSpace=wrap;html=1;align=left;" vertex="1" parent="1">
                    <mxGeometry x="705" y="320" width="115" height="20" as="geometry"/>
                </mxCell>
            </root>
        </mxGraphModel>
    </diagram>
</mxfile>